<svg xmlns="http://www.w3.org/2000/svg" xmlns:xlink="http://www.w3.org/1999/xlink" version="1.1" viewBox="-110 -110 920 420"><defs><style>svg{font-size: 16px; font-family: Arial, sans-serif;}
.edge {stroke: #000000; stroke-width: 6px}
.weight {fill: #ffffff; font-size: 9.600000000000001px; text-anchor: middle; dominant-baseline: middle}
.weight_container {fill: #000000}
.node {fill: #ffffff; stroke: #000000; stroke-width: 4.5px; stroke-color: #000000}
.node_label {fill: #000000; font-size: 16px; text-anchor: middle; dominant-baseline: middle; font-weight: bold}
.bubble {fill: #9d00d6}
.bubble_text {fill: #ffffff; font-size: 12px; text-anchor: middle; dominant-baseline: middle; font-weight: bold}</style></defs><line class="edge" x1="123.42606428329091" y1="131.25914857336727" x2="320.9516802887193" y2="-26.761344230975407" stroke="#000000" id="Edge_11oh07hmalf"/><polygon class="edge" points="322.66959166949397,-28.135673335595143 319.3944493494837,-19.752747665897374 313.7721939214939,-26.780566950884644" fill="#000000" id="edge-arrow-Edge_11oh07hmalf"/><line class="edge" x1="121.21320343559643" y1="171.21320343559643" x2="173.6956277398604" y2="223.69562773986044" stroke="#000000" id="Edge_e1df8mil72j"/><polygon class="edge" points="175.25126265847084,225.25126265847084 166.5579302218692,222.92189125254814 172.92189125254814,216.5579302218692" fill="#000000" id="edge-arrow-Edge_e1df8mil72j"/><line class="edge" x1="359.48683298050514" y1="-21.539501058484586" x2="388.2363271041736" y2="64.70898131252088" stroke="#000000" id="Edge_xgstljrw0so"/><polygon class="edge" points="388.9320281894107,66.79608456823202 382.1982018394101,60.824854988988044 390.7363515218648,57.9788050948365" fill="#000000" id="edge-arrow-Edge_xgstljrw0so"/><line class="edge" x1="224" y1="232" x2="370.24" y2="122.32" stroke="#000000" id="Edge_kwypg6v7ba"/><polygon class="edge" points="372,121 368.46461709275206,129.27653718043598 363.06461709275203,122.07653718043596" fill="#000000" id="edge-arrow-Edge_kwypg6v7ba"/><line class="edge" x1="430" y1="100" x2="562.8" y2="100" stroke="#000000" id="Edge_jt5f0vcaceg"/><polygon class="edge" points="565,100 557.2057713659401,104.5 557.2057713659401,95.5" fill="#000000" id="edge-arrow-Edge_jt5f0vcaceg"/><line class="edge" x1="213.41640786499875" y1="223.16718427000254" x2="333.36365424740154" y2="-16.727308494803125" stroke="#000000" id="Edge_dq7br463hyn"/><polygon class="edge" points="334.3475241575015,-18.695048315002946 334.8867615054144,-9.711217112079785 326.8369167864152,-13.736139471579406" fill="#000000" id="edge-arrow-Edge_dq7br463hyn"/><line class="edge" x1="-20" y1="150" x2="62.8" y2="150" stroke="#000000" id="Edge_g28y62w7odc"/><polygon class="edge" points="65,150 57.20577136594005,154.5 57.20577136594005,145.5" fill="#000000" id="edge-arrow-Edge_g28y62w7odc"/><line class="edge" x1="630" y1="100" x2="712.8" y2="100" stroke="#000000" id="Edge_mmf1y4lvav"/><polygon class="edge" points="715,100 707.2057713659401,104.5 707.2057713659401,95.5" fill="#000000" id="edge-arrow-Edge_mmf1y4lvav"/><line class="edge" x1="228.08987532707133" y1="239.46629675234826" x2="565.1685545944315" y2="113.06179202708817" stroke="#000000" id="Edge_kgwhuj80s5n"/><polygon class="edge" points="567.2284787850834,112.28932045559371 561.5105705855168,119.23953813717233 558.3504596112213,110.81257553905093" fill="#000000" id="edge-arrow-Edge_kgwhuj80s5n"/><line class="edge" x1="375.7247877713763" y1="-34.565127337174204" x2="568.1012631634934" y2="80.86075789809601" stroke="#000000" id="Edge_7bu56mrdsnl"/><polygon class="edge" points="569.987747600061,81.99264856003657 560.9890207855445,81.84126917668749 565.6194825843922,74.12383284527459" fill="#000000" id="edge-arrow-Edge_7bu56mrdsnl"/><circle class="weight_container" cx="225" cy="50" r="12" id="container-Edge_11oh07hmalf"/><text class="weight" x="225" y="50" id="weight-Edge_11oh07hmalf">1</text><circle class="weight_container" cx="150" cy="200" r="12" id="container-Edge_e1df8mil72j"/><text class="weight" x="150" y="200" id="weight-Edge_e1df8mil72j">1</text><circle class="weight_container" cx="375" cy="25" r="12" id="container-Edge_xgstljrw0so"/><text class="weight" x="375" y="25" id="weight-Edge_xgstljrw0so">2</text><circle class="weight_container" cx="300" cy="175" r="12" id="container-Edge_kwypg6v7ba"/><text class="weight" x="300" y="175" id="weight-Edge_kwypg6v7ba">8</text><circle class="weight_container" cx="500" cy="100" r="12" id="container-Edge_jt5f0vcaceg"/><text class="weight" x="500" y="100" id="weight-Edge_jt5f0vcaceg">5</text><circle class="weight_container" cx="275" cy="100" r="12" id="container-Edge_dq7br463hyn"/><text class="weight" x="275" y="100" id="weight-Edge_dq7br463hyn">8</text><circle class="weight_container" cx="25" cy="150" r="12" id="container-Edge_g28y62w7odc"/><text class="weight" x="25" y="150" id="weight-Edge_g28y62w7odc">0</text><circle class="weight_container" cx="675" cy="100" r="12" id="container-Edge_mmf1y4lvav"/><text class="weight" x="675" y="100" id="weight-Edge_mmf1y4lvav">1</text><circle class="weight_container" cx="400" cy="175" r="12" id="container-Edge_kgwhuj80s5n"/><text class="weight" x="400" y="175" id="weight-Edge_kgwhuj80s5n">8</text><circle class="weight_container" cx="475" cy="25" r="12" id="container-Edge_7bu56mrdsnl"/><text class="weight" x="475" y="25" id="weight-Edge_7bu56mrdsnl">2</text><circle class="node" cx="100" cy="150" r="27.75" id="A"/><circle class="node" cx="350" cy="-50" r="27.75" id="B"/><circle class="node" cx="200" cy="250" r="27.75" id="C"/><circle class="node" cx="400" cy="100" r="27.75" id="D"/><circle class="node" cx="600" cy="100" r="27.75" id="E"/><circle class="node" cx="-50" cy="150" r="27.75" id="start"/><circle class="node" cx="750" cy="100" r="27.75" id="end"/><text class="node_label" x="100" y="150" id="label-A">A</text><text class="node_label" x="350" y="-50" id="label-B">B</text><text class="node_label" x="200" y="250" id="label-C">C</text><text class="node_label" x="400" y="100" id="label-D">D</text><text class="node_label" x="600" y="100" id="label-E">E</text><text class="node_label" x="-50" y="150" id="label-start">Start</text><text class="node_label" x="750" y="100" id="label-end">End</text></svg>