<svg xmlns="http://www.w3.org/2000/svg" xmlns:xlink="http://www.w3.org/1999/xlink" version="1.1" viewBox="-60 -60 870 420"><defs><style>svg{font-size: 16px; font-family: Arial, sans-serif;}
    .edge {stroke: #000000; stroke-width: 6px}
    .weight {fill: #ffffff; font-size: 9.600000000000001px; text-anchor: middle; dominant-baseline: middle}
    .weight_container {fill: #000000}
    .node {fill: #ffffff; stroke: #000000; stroke-width: 4.5px; stroke-color: #000000}
    .node_label {fill: #000000; font-size: 16px; text-anchor: middle; dominant-baseline: middle; font-weight: bold}
    .bubble {fill: #9d00d6}
    .bubble_text {fill: #ffffff; font-size: 12px; text-anchor: middle; dominant-baseline: middle; font-weight: bold}</style></defs><line class="edge" x1="175.72478777137633" y1="134.5651273371742" x2="368.10126316349334" y2="19.13924210190399" stroke="#000000" id="Edge_03ts1zl2ojaj"/><polygon class="edge" points="369.98774760006097,18.00735143996343 365.6194825843923,25.876167154725408 360.98902078554454,18.158730823312514" fill="#000000" id="edge-arrow-Edge_03ts1zl2ojaj"/><line class="edge" x1="166.6410058867569" y1="174.9615088301353" x2="229.36515270042145" y2="269.0477290506322" stroke="#000000" id="Edge_bhlfjjhv4cm"/><polygon class="edge" points="230.58549313211697,270.8782396981755 222.51780665485933,266.889200352083 230.0062593038999,261.89689858605595" fill="#000000" id="edge-arrow-Edge_bhlfjjhv4cm"/><line class="edge" x1="274" y1="282" x2="420.24" y2="172.32" stroke="#000000" id="Edge_pe9ldqh7mf"/><polygon class="edge" points="422,171 418.46461709275206,179.27653718043598 413.06461709275203,172.07653718043596" fill="#000000" id="edge-arrow-Edge_pe9ldqh7mf"/><line class="edge" x1="480" y1="150" x2="562.8" y2="150" stroke="#000000" id="Edge_uzcytfcy4tp"/><polygon class="edge" points="565,150 557.2057713659401,154.5 557.2057713659401,145.5" fill="#000000" id="edge-arrow-Edge_uzcytfcy4tp"/><line class="edge" x1="263.41640786499875" y1="273.1671842700025" x2="383.36365424740154" y2="33.272691505196875" stroke="#000000" id="Edge_xqsl05umv6a"/><polygon class="edge" points="384.3475241575015,31.304951684997054 384.8867615054144,40.28878288792021 376.8369167864152,36.263860528420594" fill="#000000" id="edge-arrow-Edge_xqsl05umv6a"/><line class="edge" x1="30" y1="150" x2="112.8" y2="150" stroke="#000000" id="Edge_he6odaqf5fe"/><polygon class="edge" points="115,150 107.20577136594005,154.5 107.20577136594005,145.5" fill="#000000" id="edge-arrow-Edge_he6odaqf5fe"/><line class="edge" x1="630" y1="150" x2="712.8" y2="150" stroke="#000000" id="Edge_dockgzvc3jb"/><polygon class="edge" points="715,150 707.2057713659401,154.5 707.2057713659401,145.5" fill="#000000" id="edge-arrow-Edge_dockgzvc3jb"/><line class="edge" x1="424" y1="18" x2="570.24" y2="127.68" stroke="#000000" id="Edge_lievld18nto"/><polygon class="edge" points="572,129 563.0646170927521,127.92346281956404 568.4646170927521,120.72346281956403" fill="#000000" id="edge-arrow-Edge_lievld18nto"/><line class="edge" x1="280" y1="300" x2="462.8" y2="300" stroke="#000000" id="Edge_dtsihm1ufoa"/><polygon class="edge" points="465,300 457.20577136594005,304.5 457.20577136594005,295.5" fill="#000000" id="edge-arrow-Edge_dtsihm1ufoa"/><line class="edge" x1="516.6410058867568" y1="275.0384911698647" x2="579.3651527004215" y2="180.9522709493678" stroke="#000000" id="Edge_ns0vrkqp47j"/><polygon class="edge" points="580.585493132117,179.1217603018245 580.0062593038999,188.10310141394407 572.5178066548593,183.11079964791702" fill="#000000" id="edge-arrow-Edge_ns0vrkqp47j"/><circle class="weight_container" cx="275" cy="75" r="12" id="container-Edge_03ts1zl2ojaj"/><text class="weight" x="275" y="75" id="weight-Edge_03ts1zl2ojaj">1</text><circle class="weight_container" cx="200" cy="225" r="12" id="container-Edge_bhlfjjhv4cm"/><text class="weight" x="200" y="225" id="weight-Edge_bhlfjjhv4cm">1</text><circle class="weight_container" cx="350" cy="225" r="12" id="container-Edge_pe9ldqh7mf"/><text class="weight" x="350" y="225" id="weight-Edge_pe9ldqh7mf">2</text><circle class="weight_container" cx="525" cy="150" r="12" id="container-Edge_uzcytfcy4tp"/><text class="weight" x="525" y="150" id="weight-Edge_uzcytfcy4tp">5</text><circle class="weight_container" cx="325" cy="150" r="12" id="container-Edge_xqsl05umv6a"/><text class="weight" x="325" y="150" id="weight-Edge_xqsl05umv6a">2</text><circle class="weight_container" cx="75" cy="150" r="12" id="container-Edge_he6odaqf5fe"/><text class="weight" x="75" y="150" id="weight-Edge_he6odaqf5fe">0</text><circle class="weight_container" cx="675" cy="150" r="12" id="container-Edge_dockgzvc3jb"/><text class="weight" x="675" y="150" id="weight-Edge_dockgzvc3jb">1</text><circle class="weight_container" cx="500" cy="75" r="12" id="container-Edge_lievld18nto"/><text class="weight" x="500" y="75" id="weight-Edge_lievld18nto">2</text><circle class="weight_container" cx="375" cy="300" r="12" id="container-Edge_dtsihm1ufoa"/><text class="weight" x="375" y="300" id="weight-Edge_dtsihm1ufoa">2</text><circle class="weight_container" cx="550" cy="225" r="12" id="container-Edge_ns0vrkqp47j"/><text class="weight" x="550" y="225" id="weight-Edge_ns0vrkqp47j">8</text><circle class="node" cx="150" cy="150" r="27.75" id="A"/><circle class="node" cx="400" cy="0" r="27.75" id="B"/><circle class="node" cx="250" cy="300" r="27.75" id="C"/><circle class="node" cx="450" cy="150" r="27.75" id="D"/><circle class="node" cx="600" cy="150" r="27.75" id="E"/><circle class="node" cx="0" cy="150" r="27.75" id="start"/><circle class="node" cx="750" cy="150" r="27.75" id="end"/><circle class="node" cx="500" cy="300" r="27.75" id="F"/><text class="node_label" x="150" y="150" id="label-A">A</text><text class="node_label" x="400" y="0" id="label-B">B</text><text class="node_label" x="250" y="300" id="label-C">C</text><text class="node_label" x="450" y="150" id="label-D">D</text><text class="node_label" x="600" y="150" id="label-E">E</text><text class="node_label" x="0" y="150" id="label-start">start</text><text class="node_label" x="750" y="150" id="label-end">end</text><text class="node_label" x="500" y="300" id="label-F">F</text></svg>