<svg xmlns="http://www.w3.org/2000/svg" xmlns:xlink="http://www.w3.org/1999/xlink" version="1.1"
    viewBox="90 90 1170 360">
    <defs>
        <style>
            svg {
                font-size: 16px;
                font-family: Arial, sans-serif;
            }

            .edge {
                stroke: #000;
                stroke-width: 6px
            }

            .weight {
                fill: #fff;
                font-size: 9.600000000000001px;
                text-anchor: middle;
                dominant-baseline: middle
            }

            .weight_container {
                fill: #000
            }

            .node {
                fill: #fff;
                stroke: #000;
                stroke-width: 4.5px;
                stroke-color: #000
            }

            .node_label {
                fill: #000;
                font-size: 16px;
                text-anchor: middle;
                dominant-baseline: middle;
                font-weight: bold
            }

            .bubble {
                fill: purple
            }
        </style>
    </defs>
    <line class="edge" x1="180" y1="150" x2="262.8" y2="150" stroke="#000" id="Edge_98zj1e52bok" />
    <polygon class="edge" points="265,150 257.20577136594005,154.5 257.20577136594005,145.5" fill="#000"
        id="edge-arrow-Edge_98zj1e52bok" />
    <line class="edge" x1="173.4260642832909" y1="168.74085142663273" x2="270.9516802887193" y2="246.76134423097542"
        stroke="#000" id="Edge_bhw06ti2f6u" />
    <polygon class="edge"
        points="272.66959166949397,248.13567333559516 263.7721939214939,246.78056695088466 269.3944493494837,239.75274766589737"
        fill="#000" id="edge-arrow-Edge_bhw06ti2f6u" />
    <line class="edge" x1="330" y1="150" x2="412.8" y2="150" stroke="#000" id="Edge_0n0xvgprv4j" />
    <polygon class="edge" points="415,150 407.20577136594005,154.5 407.20577136594005,145.5" fill="#000"
        id="edge-arrow-Edge_0n0xvgprv4j" />
    <line class="edge" x1="480" y1="270" x2="562.8" y2="270" stroke="#000" id="Edge_ipjl2mlv3wi" />
    <polygon class="edge" points="565,270 557.2057713659401,274.5 557.2057713659401,265.5" fill="#000"
        id="edge-arrow-Edge_ipjl2mlv3wi" />
    <line class="edge" x1="623.4260642832909" y1="371.25914857336727" x2="720.9516802887192" y2="293.2386557690246"
        stroke="#000" id="Edge_iosahxi72c" />
    <polygon class="edge"
        points="722.6695916694939,291.86432666440487 719.3944493494837,300.24725233410265 713.7721939214938,293.21943304911537"
        fill="#000" id="edge-arrow-Edge_iosahxi72c" />
    <line class="edge" x1="930" y1="150" x2="1012.8" y2="150" stroke="#000" id="Edge_598l24uc5dx" />
    <polygon class="edge" points="1015,150 1007.2057713659401,154.5 1007.2057713659401,145.5" fill="#000"
        id="edge-arrow-Edge_598l24uc5dx" />
    <line class="edge" x1="930" y1="270" x2="1012.8" y2="270" stroke="#000" id="Edge_s53vu3bhrai" />
    <polygon class="edge" points="1015,270 1007.2057713659401,274.5 1007.2057713659401,265.5" fill="#000"
        id="edge-arrow-Edge_s53vu3bhrai" />
    <line class="edge" x1="1073.426064283291" y1="251.25914857336727" x2="1170.9516802887192" y2="173.2386557690246"
        stroke="#000" id="Edge_lw8wlsmch0p" />
    <polygon class="edge"
        points="1172.669591669494,171.86432666440484 1169.3944493494837,180.24725233410263 1163.772193921494,173.21943304911534"
        fill="#000" id="edge-arrow-Edge_lw8wlsmch0p" />
    <line class="edge" x1="330" y1="270" x2="412.8" y2="270" stroke="#000" id="Edge_yqugdfmjr" />
    <polygon class="edge" points="415,270 407.20577136594005,274.5 407.20577136594005,265.5" fill="#000"
        id="edge-arrow-Edge_yqugdfmjr" />
    <line class="edge" x1="630" y1="150" x2="712.8" y2="150" stroke="#000" id="Edge_1o02ku9ymnq" />
    <polygon class="edge" points="715,150 707.2057713659401,154.5 707.2057713659401,145.5" fill="#000"
        id="edge-arrow-Edge_1o02ku9ymnq" />
    <line class="edge" x1="473.4260642832909" y1="288.74085142663273" x2="570.9516802887192" y2="366.7613442309754"
        stroke="#000" id="Edge_lrb2md826kl" />
    <polygon class="edge"
        points="572.6695916694939,368.13567333559513 563.7721939214938,366.78056695088463 569.3944493494837,359.75274766589735"
        fill="#000" id="edge-arrow-Edge_lrb2md826kl" />
    <line class="edge" x1="780" y1="150" x2="862.8" y2="150" stroke="#000" id="Edge_j4clnnp6lk" />
    <polygon class="edge" points="865,150 857.2057713659401,154.5 857.2057713659401,145.5" fill="#000"
        id="edge-arrow-Edge_j4clnnp6lk" />
    <line class="edge" x1="773.4260642832909" y1="168.74085142663273" x2="870.9516802887192" y2="246.76134423097542"
        stroke="#000" id="Edge_7b7wekddkx" />
    <polygon class="edge"
        points="872.6695916694939,248.13567333559516 863.7721939214938,246.78056695088466 869.3944493494837,239.75274766589737"
        fill="#000" id="edge-arrow-Edge_7b7wekddkx" />
    <line class="edge" x1="473.4260642832909" y1="251.25914857336727" x2="570.9516802887192" y2="173.2386557690246"
        stroke="#000" id="Edge_luhgtpizelh" />
    <polygon class="edge"
        points="572.6695916694939,171.86432666440484 569.3944493494837,180.24725233410263 563.7721939214938,173.21943304911534"
        fill="#000" id="edge-arrow-Edge_luhgtpizelh" />
    <circle class="node" cx="150" cy="150" r="27.75" id="A" />
    <circle class="node" cx="300" cy="150" r="27.75" id="B" />
    <circle class="node" cx="300" cy="270" r="27.75" id="C" />
    <circle class="node" cx="450" cy="150" r="27.75" id="D" />
    <circle class="node" cx="600" cy="150" r="27.75" id="E" />
    <circle class="node" cx="450" cy="270" r="27.75" id="F" />
    <circle class="node" cx="600" cy="270" r="27.75" id="G" />
    <circle class="node" cx="750" cy="150" r="27.75" id="H" />
    <circle class="node" cx="600" cy="390" r="27.75" id="I" />
    <circle class="node" cx="750" cy="270" r="27.75" id="J" />
    <circle class="node" cx="900" cy="150" r="27.75" id="K" />
    <circle class="node" cx="1050" cy="150" r="27.75" id="L" />
    <circle class="node" cx="900" cy="270" r="27.75" id="M" />
    <circle class="node" cx="1050" cy="270" r="27.75" id="N" />
    <circle class="node" cx="1200" cy="150" r="27.75" id="O" />
    <text class="node_label" x="150" y="150" id="label-A">A</text>
    <text class="node_label" x="300" y="150" id="label-B">B</text>
    <text class="node_label" x="300" y="270" id="label-C">C</text>
    <text class="node_label" x="450" y="150" id="label-D">D</text>
    <text class="node_label" x="600" y="150" id="label-E">E</text>
    <text class="node_label" x="450" y="270" id="label-F">F</text>
    <text class="node_label" x="600" y="270" id="label-G">G</text>
    <text class="node_label" x="750" y="150" id="label-H">H</text>
    <text class="node_label" x="750" y="270" id="label-J">J</text>
    <text class="node_label" x="600" y="390" id="label-I">I</text>
    <text class="node_label" x="900" y="150" id="label-K">K</text>
    <text class="node_label" x="1050" y="150" id="label-L">L</text>
    <text class="node_label" x="900" y="270" id="label-M">M</text>
    <text class="node_label" x="1050" y="270" id="label-N">N</text>
    <text class="node_label" x="1200" y="150" id="label-O">O</text>
    <circle class="weight_container" cx="225" cy="150" r="12" id="container-Edge_98zj1e52bok" /><text class="weight"
        x="225" y="150" id="weight-Edge_98zj1e52bok">1</text>
    <circle class="weight_container" cx="225" cy="210" r="12" id="container-Edge_bhw06ti2f6u" /><text class="weight"
        x="225" y="210" id="weight-Edge_bhw06ti2f6u">1</text>
    <circle class="weight_container" cx="375" cy="150" r="12" id="container-Edge_0n0xvgprv4j" /><text class="weight"
        x="375" y="150" id="weight-Edge_0n0xvgprv4j">1</text>
    <circle class="weight_container" cx="525" cy="270" r="12" id="container-Edge_ipjl2mlv3wi" /><text class="weight"
        x="525" y="270" id="weight-Edge_ipjl2mlv3wi">1</text>
    <circle class="weight_container" cx="675" cy="330" r="12" id="container-Edge_iosahxi72c" /><text class="weight"
        x="675" y="330" id="weight-Edge_iosahxi72c">1</text>
    <circle class="weight_container" cx="975" cy="150" r="12" id="container-Edge_598l24uc5dx" /><text class="weight"
        x="975" y="150" id="weight-Edge_598l24uc5dx">1</text>
    <circle class="weight_container" cx="975" cy="270" r="12" id="container-Edge_s53vu3bhrai" /><text class="weight"
        x="975" y="270" id="weight-Edge_s53vu3bhrai">1</text>
    <circle class="weight_container" cx="1125" cy="210" r="12" id="container-Edge_lw8wlsmch0p" /><text class="weight"
        x="1125" y="210" id="weight-Edge_lw8wlsmch0p">1</text>
    <circle class="weight_container" cx="375" cy="270" r="12" id="container-Edge_yqugdfmjr" /><text class="weight"
        x="375" y="270" id="weight-Edge_yqugdfmjr">1</text>
    <circle class="weight_container" cx="675" cy="150" r="12" id="container-Edge_1o02ku9ymnq" /><text class="weight"
        x="675" y="150" id="weight-Edge_1o02ku9ymnq">1</text>
    <circle class="weight_container" cx="525" cy="330" r="12" id="container-Edge_lrb2md826kl" /><text class="weight"
        x="525" y="330" id="weight-Edge_lrb2md826kl">1</text>
    <circle class="weight_container" cx="825" cy="150" r="12" id="container-Edge_j4clnnp6lk" /><text class="weight"
        x="825" y="150" id="weight-Edge_j4clnnp6lk">1</text>
    <circle class="weight_container" cx="825" cy="210" r="12" id="container-Edge_7b7wekddkx" /><text class="weight"
        x="825" y="210" id="weight-Edge_7b7wekddkx">1</text>
    <circle class="weight_container" cx="525" cy="210" r="12" id="container-Edge_luhgtpizelh" /><text class="weight"
        x="525" y="210" id="weight-Edge_luhgtpizelh">1</text>
</svg>