<svg width="24" height="24" viewBox="0 0 24 24" fill="none" xmlns="http://www.w3.org/2000/svg">
<path d="M9 5C9 5.55228 8.55228 6 8 6C7.44772 6 7 5.55228 7 5C7 4.44772 7.44772 4 8 4C8.55228 4 9 4.44772 9 5Z" stroke="black" stroke-width="2" stroke-linecap="round" stroke-linejoin="round"/>
<path d="M9 12C9 12.5523 8.55228 13 8 13C7.44772 13 7 12.5523 7 12C7 11.4477 7.44772 11 8 11C8.55228 11 9 11.4477 9 12Z" stroke="black" stroke-width="2" stroke-linecap="round" stroke-linejoin="round"/>
<path d="M16 5C16 5.55228 15.5523 6 15 6C14.4477 6 14 5.55228 14 5C14 4.44772 14.4477 4 15 4C15.5523 4 16 4.44772 16 5Z" stroke="black" stroke-width="2" stroke-linecap="round" stroke-linejoin="round"/>
<path d="M16 12C16 12.5523 15.5523 13 15 13C14.4477 13 14 12.5523 14 12C14 11.4477 14.4477 11 15 11C15.5523 11 16 11.4477 16 12Z" stroke="black" stroke-width="2" stroke-linecap="round" stroke-linejoin="round"/>
<path d="M16 19C16 19.5523 15.5523 20 15 20C14.4477 20 14 19.5523 14 19C14 18.4477 14.4477 18 15 18C15.5523 18 16 18.4477 16 19Z" stroke="black" stroke-width="2" stroke-linecap="round" stroke-linejoin="round"/>
<path d="M9 19C9 19.5523 8.55228 20 8 20C7.44772 20 7 19.5523 7 19C7 18.4477 7.44772 18 8 18C8.55228 18 9 18.4477 9 19Z" stroke="black" stroke-width="2" stroke-linecap="round" stroke-linejoin="round"/>
</svg>
