<svg width="18" height="22" viewBox="0 0 18 22" fill="none" xmlns="http://www.w3.org/2000/svg">
<path d="M11.9002 10.9999C11.9002 12.3254 12.9747 13.3999 14.3002 13.3999C15.6256 13.3999 16.7002 12.3254 16.7002 10.9999C16.7002 9.67442 15.6256 8.5999 14.3002 8.5999C12.9747 8.5999 11.9002 9.67442 11.9002 10.9999ZM11.9002 10.9999H5.8M5.8 10.9999C5.8 9.67442 4.72548 8.5999 3.4 8.5999C2.07452 8.5999 1 9.67442 1 10.9999C1 12.3254 2.07452 13.3999 3.4 13.3999C4.72548 13.3999 5.8 12.3254 5.8 10.9999ZM6.12504 9.1999L8.85008 7.3999L11.5751 5.5999M11.5751 16.3999L8.85008 14.5999L6.12504 12.7999M14.3002 6.1999C12.9747 6.1999 11.9002 5.12539 11.9002 3.7999C11.9002 2.47442 12.9747 1.3999 14.3002 1.3999C15.6256 1.3999 16.7002 2.47442 16.7002 3.7999C16.7002 5.12539 15.6256 6.1999 14.3002 6.1999ZM14.3002 20.5999C12.9747 20.5999 11.9002 19.5254 11.9002 18.1999C11.9002 16.8744 12.9747 15.7999 14.3002 15.7999C15.6256 15.7999 16.7002 16.8744 16.7002 18.1999C16.7002 19.5254 15.6256 20.5999 14.3002 20.5999Z" stroke="black" stroke-width="2"/>
</svg>
