<svg width="20" height="18" viewBox="0 0 20 18" fill="none" xmlns="http://www.w3.org/2000/svg">
<path d="M7 5.3252V4.3252C7 3.52955 7.31607 2.76648 7.87868 2.20388C8.44129 1.64127 9.20435 1.3252 10 1.3252C10.7956 1.3252 11.5587 1.64127 12.1213 2.20388C12.6839 2.76648 13 3.52955 13 4.3252V5.3252M10 16.3252C11.3261 16.3252 12.5979 15.7984 13.5355 14.8607C14.4732 13.923 15 12.6513 15 11.3252V8.3252C14.9409 7.25377 14.5956 6.21778 14 5.3252H6C5.4044 6.21778 5.05907 7.25377 5 8.3252V11.3252C5 12.6513 5.52678 13.923 6.46447 14.8607C7.40215 15.7984 8.67392 16.3252 10 16.3252ZM10 16.3252V10.3252M1 9.3252H5M15 9.3252H19M2 15.3252L5.35 13.3252M18 15.3252L14.65 13.3252M2 3.3252L5.75 5.72519M18 3.3252L14.25 5.72519" stroke="black" stroke-width="2" stroke-linecap="round" stroke-linejoin="round"/>
</svg>
