<svg width="24" height="24" viewBox="0 0 24 24" fill="none" xmlns="http://www.w3.org/2000/svg">
<path d="M6.5 5C6.5 5.82843 5.82843 6.5 5 6.5M6.5 5C6.5 4.17157 5.82843 3.5 5 3.5C4.17157 3.5 3.5 4.17157 3.5 5C3.5 5.82843 4.17157 6.5 5 6.5M6.5 5H10.5M5 6.5V10.5M5 10.5C4.17157 10.5 3.5 11.1716 3.5 12C3.5 12.8284 4.17157 13.5 5 13.5M5 10.5C5.82843 10.5 6.5 11.1716 6.5 12C6.5 12.8284 5.82843 13.5 5 13.5M5 13.5V17.5M5 17.5C4.17157 17.5 3.5 18.1716 3.5 19C3.5 19.8284 4.17157 20.5 5 20.5C5.82843 20.5 6.5 19.8284 6.5 19M5 17.5C5.82843 17.5 6.5 18.1716 6.5 19M6.5 19H10.5M10.5 19C10.5 19.8284 11.1716 20.5 12 20.5C12.8284 20.5 13.5 19.8284 13.5 19M10.5 19C10.5 18.1716 11.1716 17.5 12 17.5C12.8284 17.5 13.5 18.1716 13.5 19M12 6.5C12.8284 6.5 13.5 5.82843 13.5 5C13.5 4.17157 12.8284 3.5 12 3.5C11.1716 3.5 10.5 4.17157 10.5 5M12 6.5C11.1716 6.5 10.5 5.82843 10.5 5M12 6.5V10.5M13.5 12C13.5 12.8284 12.8284 13.5 12 13.5C11.1716 13.5 10.5 12.8284 10.5 12C10.5 11.1716 11.1716 10.5 12 10.5M13.5 12C13.5 11.1716 12.8284 10.5 12 10.5M13.5 12H17.5M13.5 19H17.5M17.5 19C17.5 19.8284 18.1716 20.5 19 20.5C19.8284 20.5 20.5 19.8284 20.5 19C20.5 18.1716 19.8284 17.5 19 17.5M17.5 19C17.5 18.1716 18.1716 17.5 19 17.5M19 13.5C19.8284 13.5 20.5 12.8284 20.5 12C20.5 11.1716 19.8284 10.5 19 10.5C18.1716 10.5 17.5 11.1716 17.5 12M19 13.5C18.1716 13.5 17.5 12.8284 17.5 12M19 13.5V17.5" stroke="black" stroke-width="2" stroke-linecap="round" stroke-linejoin="round"/>
</svg>
