<svg width="31" height="24" viewBox="0 0 31 24" fill="none" xmlns="http://www.w3.org/2000/svg">
<path d="M4.22222 6.61538C4.22222 7.50754 3.5009 8.23077 2.61111 8.23077C1.72132 8.23077 1 7.50754 1 6.61538C1 5.72323 1.72132 5 2.61111 5C3.5009 5 4.22222 5.72323 4.22222 6.61538ZM4.22222 6.61538C7.99729 6.61538 13.8889 6.61538 13.8889 6.61538M17.1111 6.61538C17.1111 7.50754 16.3898 8.23077 15.5 8.23077C14.6102 8.23077 13.8889 7.50754 13.8889 6.61538M17.1111 6.61538C17.1111 5.72323 16.3898 5 15.5 5C14.6102 5 13.8889 5.72323 13.8889 6.61538M17.1111 6.61538C20.8862 6.61538 26.7778 6.61538 26.7778 6.61538M13.8889 17.3846C13.8889 18.2768 14.6102 19 15.5 19C16.3898 19 17.1111 18.2768 17.1111 17.3846C17.1111 16.4925 16.3898 15.7692 15.5 15.7692C14.6102 15.7692 13.8889 16.4925 13.8889 17.3846ZM13.8889 17.3846L11.5837 17.3846C11.2845 17.3846 11.001 17.2506 10.8111 17.0195L3.58929 8.23077M26.7778 6.61538C26.7778 7.50754 27.4991 8.23077 28.3889 8.23077C29.2787 8.23077 30 7.50754 30 6.61538C30 5.72323 29.2787 5 28.3889 5C27.4991 5 26.7778 5.72323 26.7778 6.61538ZM26.7778 17.3846C26.7778 18.2768 27.4991 19 28.3889 19C29.2787 19 30 18.2768 30 17.3846C30 16.4925 29.2787 15.7692 28.3889 15.7692C27.4991 15.7692 26.7778 16.4925 26.7778 17.3846ZM26.7778 17.3846L24.4749 17.3846C24.1744 17.3846 23.8898 17.2495 23.6999 17.0166L16.5357 8.23077" stroke="black" stroke-width="2" stroke-linecap="round"/>
</svg>
