<svg width="24" height="24" viewBox="0 0 24 24" fill="none" xmlns="http://www.w3.org/2000/svg">
<g clip-path="url(#clip0_237_5)">
<path d="M12 4C7.58172 4 4 7.58172 4 12C4 16.4183 7.58172 20 12 20C16.4183 20 20 16.4183 20 12C20 7.58172 16.4183 4 12 4Z" stroke="black" stroke-width="2" stroke-linecap="round" stroke-linejoin="round"/>
<path d="M18.5 3C18.5 3.82843 19.1716 4.5 20 4.5C20.8284 4.5 21.5 3.82843 21.5 3C21.5 2.17157 20.8284 1.5 20 1.5C19.1716 1.5 18.5 2.17157 18.5 3Z" stroke="black" stroke-linecap="round" stroke-linejoin="round"/>
<path d="M10.8873 14H9.89862L11.405 9.63636H12.5939L14.0982 14H13.1096L12.0165 10.6335H11.9824L10.8873 14ZM10.8255 12.2848H13.1607V13.005H10.8255V12.2848Z" fill="black"/>
</g>
<defs>
<clipPath id="clip0_237_5">
<rect width="24" height="24" fill="white"/>
</clipPath>
</defs>
</svg>
