<svg width="24" height="24" viewBox="0 0 24 24" fill="none" xmlns="http://www.w3.org/2000/svg">
<path d="M16.5 8.99158C17.8807 8.99158 19 7.87418 19 6.49579C19 5.1174 17.8807 4 16.5 4C15.1193 4 14 5.1174 14 6.49579C14 7.87418 15.1193 8.99158 16.5 8.99158ZM16.5 8.99158L16.5 11.4867C16.5 14.7895 13.8181 17.4669 10.5097 17.4669L9.00126 17.4669M6.5 15.0084C7.88071 15.0084 9 16.1258 9 17.5042C9 18.8826 7.88071 20 6.5 20C5.11929 20 4 18.8826 4 17.5042C4 16.1258 5.11929 15.0084 6.5 15.0084Z" stroke="black" stroke-width="2" stroke-linecap="round"/>
</svg>
