<svg width="20" height="20" viewBox="0 0 20 20" fill="none" xmlns="http://www.w3.org/2000/svg">
<path d="M13.7123 7.34835C14.0052 7.05546 14.0052 6.58058 13.7123 6.28769C13.4194 5.9948 12.9445 5.9948 12.6517 6.28769L13.7123 7.34835ZM6.28769 12.6517C5.9948 12.9445 5.9948 13.4194 6.28769 13.7123C6.58058 14.0052 7.05546 14.0052 7.34835 13.7123L6.28769 12.6517ZM12.6517 13.7123C12.9445 14.0052 13.4194 14.0052 13.7123 13.7123C14.0052 13.4194 14.0052 12.9445 13.7123 12.6517L12.6517 13.7123ZM7.34835 6.28769C7.05546 5.9948 6.58058 5.9948 6.28769 6.28769C5.9948 6.58058 5.9948 7.05546 6.28769 7.34835L7.34835 6.28769ZM18.25 10C18.25 14.5563 14.5563 18.25 10 18.25V19.75C15.3848 19.75 19.75 15.3848 19.75 10H18.25ZM10 18.25C5.44365 18.25 1.75 14.5563 1.75 10H0.25C0.25 15.3848 4.61522 19.75 10 19.75V18.25ZM1.75 10C1.75 5.44365 5.44365 1.75 10 1.75V0.25C4.61522 0.25 0.25 4.61522 0.25 10H1.75ZM10 1.75C14.5563 1.75 18.25 5.44365 18.25 10H19.75C19.75 4.61522 15.3848 0.25 10 0.25V1.75ZM12.6517 6.28769L9.46967 9.46967L10.5303 10.5303L13.7123 7.34835L12.6517 6.28769ZM9.46967 9.46967L6.28769 12.6517L7.34835 13.7123L10.5303 10.5303L9.46967 9.46967ZM13.7123 12.6517L10.5303 9.46967L9.46967 10.5303L12.6517 13.7123L13.7123 12.6517ZM10.5303 9.46967L7.34835 6.28769L6.28769 7.34835L9.46967 10.5303L10.5303 9.46967Z" fill="black"/>
</svg>
